/* XPM */
static char * 36_cell_xpm[] = {
"36 36 3 1",
" 	c None",
".	c coral",
"+	c cyan",
"       .....                        ",
"       .+++.                        ",
"       .+++.                        ",
"       .+++.                        ",
"       .+++.                        ",
"       .+++.                        ",
"       .+++.                        ",
"........+++........                 ",
".+++++++++++++++++.                 ",
".+++++++++++++++++.                 ",
".+++++++++++++++++.                 ",
"........+++........                 ",
"       .+++.                        ",
"       .+++.                        ",
"       .+++.                        ",
"       .+++.                        ",
"       .+++.                        ",
"       .+++.                        ",
"       .....                        ",
"                                    ",
"                                    ",
"                                    ",
"                                    ",
"                                    ",
"                                    ",
"                                    ",
"                                    ",
"                                    ",
"                                    ",
"                                    ",
"                                    ",
"                                    ",
"                                    ",
"                                    ",
"                                    ",
"                                    "};
