/* XPM */
static char * 32_cell_xpm[] = {
"32 32 3 1",
" 	c None",
".	c coral",
"+	c cyan",
"     ....                       ",
"     .++.                       ",
"     .++.                       ",
"     .++.                       ",
"     .++.                       ",
"......++......                  ",
".++++++++++++.                  ",
".++++++++++++.                  ",
"......++......                  ",
"     .++.                       ",
"     .++.                       ",
"     .++.                       ",
"     .++.                       ",
"     ....                       ",
"                                ",
"                                ",
"                                ",
"                                ",
"                                ",
"                                ",
"                                ",
"                                ",
"                                ",
"                                ",
"                                ",
"                                ",
"                                ",
"                                ",
"                                ",
"                                ",
"                                ",
"                                "};
