/* XPM */
static char *dummy[]={
"36 36 3 1",
". c None",
"a c coral",
"# c cyan",
".........###........................",
".........#a#........................",
".........#a#........................",
".........#a#........................",
".........#a#........................",
".........#a#........................",
".........#a#........................",
".........#a#........................",
".........#a#........................",
"##########a##########...............",
"#aaaaaaaaa.aaaaaaaaa#...............",
"##########a##########...............",
".........#a#........................",
".........#a#........................",
".........#a#........................",
".........#a#........................",
".........#a#........................",
".........#a#........................",
".........#a#........................",
".........#a#........................",
".........###........................",
"....................................",
"....................................",
"....................................",
"....................................",
"....................................",
"....................................",
"....................................",
"....................................",
"....................................",
"....................................",
"....................................",
"....................................",
"....................................",
"....................................",
"...................................."};
