/* XPM */
static char *_2_crosshair[] = {
/* columns rows colors chars-per-pixel */
"32 32 3 1 ",
"  c None",
". c coral",
"X c cyan",
/* pixels */
"      XXX                       ",
"      X.X                       ",
"      X.X                       ",
"      X.X                       ",
"      X.X                       ",
"      X.X                       ",
"XXXXXXX.XXXXXXX                 ",
"X...... ......X                 ",
"XXXXXXX.XXXXXXX                 ",
"      X.X                       ",
"      X.X                       ",
"      X.X                       ",
"      X.X                       ",
"      X.X                       ",
"      XXX                       ",
"                                ",
"                                ",
"                                ",
"                                ",
"                                ",
"                                ",
"                                ",
"                                ",
"                                ",
"                                ",
"                                ",
"                                ",
"                                ",
"                                ",
"                                ",
"                                ",
"                                "
};
