/* XPM */
static char * 32_dnd_ask_xpm[] = {
"32 32 6 1",
" 	c None",
".	c coral",
"+	c cyan",
"@	c black",
"#	c white",
"$	c green",
"    .. .. ..                    ",
"   .++.++.++...                 ",
" ...++.+++++.+.                 ",
".++.++++++++++.                 ",
".+++.+++++++++.                 ",
" .+++++.+.+.++.                 ",
"  .++++.+.+.++.                 ",
"  .++++.+.+.++.                 ",
"   .+++.+.+.+.                  ",
"    .+++++++.@#@#@              ",
"     .+++..+.#@#@#              ",
"     ....  ..  @@@@             ",
"     #@       @$$$$@            ",
"     @#      @$$$$$$@           ",
"     #@     @$$$@@$$$@          ",
"     @#     @$$@#@@$$@          ",
"     #@#@#@#@@@#@@$$$@          ",
"     @#@#@#@#@#@@$$$@           ",
"               @$$$@            ",
"               @$$@             ",
"               @$$@             ",
"                @@              ",
"               @$$@             ",
"               @$$@             ",
"                @@              ",
"                                ",
"                                ",
"                                ",
"                                ",
"                                ",
"                                ",
"                                "};
