/* XPM */
static char * 36_dnd_move_xpm[] = {
"36 36 6 1",
" 	c None",
".	c coral",
"+	c cyan",
"@	c black",
"#	c white",
"$	c green",
"     ... ... ...                    ",
"    .+++.+++.+++.                   ",
"    .+++.+++.++++...                ",
" ....+++.+++.++++.++.               ",
".+++.+++++++++++++++.               ",
".+++..++++++++++++++.               ",
".++++..+++++++++++++.               ",
" .++++.+++.++.++.+++.               ",
"  .+++++++.++.++.+++.               ",
"   .++++++.++.++.+++.               ",
"   .++++++.++.++.+++.               ",
"   .++++++.++.++.+++.               ",
"    .+++++.++.++.++.                ",
"     .++++++++++++.     @           ",
"      .++++++++++.#@#@#@$@          ",
"       .+++++++++.@#@#@$$$@         ",
"       .++++...++.#@#@$$$$$@        ",
"       .....  ....  @$$$$$$$@       ",
"       @#@         @$$$$$$$$$@      ",
"       #@#        @ @@@@@@@@@ @     ",
"       @#@       @$@         @$@    ",
"       #@#      @$$@         @$$@   ",
"       @#@     @$$$@         @$$$@  ",
"       #@#    @$$$$@         @$$$$@ ",
"       @#@#@#@$$$$$@         @$$$$$@",
"       #@#@#@#@$$$$@         @$$$$@ ",
"       @#@#@#@#@$$$@         @$$$@  ",
"                @$$@         @$$@   ",
"                 @$@         @$@    ",
"                  @ @@@@@@@@@ @     ",
"                   @$$$$$$$$$@      ",
"                    @$$$$$$$@       ",
"                     @$$$$$@        ",
"                      @$$$@         ",
"                       @$@          ",
"                        @           "};
