/* XPM */
static char * 36_dnd_no_drop_xpm[] = {
"36 36 6 1",
" 	c None",
".	c coral",
"+	c cyan",
"@	c white",
"#	c black",
"$	c red",
"     ... ... ...                    ",
"    .+++.+++.+++.                   ",
"    .+++.+++.++++...                ",
" ....+++.+++.++++.++.               ",
".+++.+++++++++++++++.               ",
".+++..++++++++++++++.               ",
".++++..+++++++++++++.               ",
" .++++.+++.++.++.+++.               ",
"  .+++++++.++.++.+++.               ",
"   .++++++.++.++.+++.               ",
"   .++++++.++.++.+++.               ",
"   .++++++.++.++.+++.               ",
"    .+++++.++.++.++.                ",
"     .++++++++++++.                 ",
"      .++++++++++.@#@#@#@#          ",
"       .+++++++++.#@#@#@#@          ",
"       .++++...++.@#@#@#@#          ",
"       .....  ....     @#####       ",
"       #@#            ##$$$$$##     ",
"       @#@           #$$$$$$$$$#    ",
"       #@#          #$$$#####$$$#   ",
"       @#@         #$$$#@@@@@#$$$#  ",
"       #@#        #$$$$$#@@@@@#$$$# ",
"       @#@        #$$#$$$#@@@@@#$$# ",
"       #@#@#@#@#@#$$$##$$$#@@@@#$$$#",
"       @#@#@#@#@##$$#@@#$$$#@@@@#$$#",
"       #@#@#@#@#@#$$#@@@#$$$#@@@#$$#",
"                 #$$#@@@@#$$$#@@#$$#",
"                 #$$$#@@@@#$$$##$$$#",
"                  #$$#@@@@@#$$$#$$# ",
"                  #$$$#@@@@@#$$$$$# ",
"                   #$$$#@@@@@#$$$#  ",
"                    #$$$#####$$$#   ",
"                     #$$$$$$$$$#    ",
"                      ##$$$$$##     ",
"                        #####       "};
