/* XPM */
static char *dummy[]={
"36 36 3 1",
"  c None",
"# c cyan",
". c coral",
".....                               ",
".###.                               ",
".###.                               ",
".###.                               ",
".###.                               ",
".###.                               ",
".###.                               ",
".###.                               ",
".###................                ",
".##################.                ",
".##################.                ",
".##################.                ",
".###................                ",
".###.                               ",
".###.                               ",
".###.                               ",
".###.                               ",
".###.                               ",
".###.                               ",
".###.                               ",
".....                               ",
"                                    ",
"                                    ",
"                                    ",
"                                    ",
"                                    ",
"                                    ",
"                                    ",
"                                    ",
"                                    ",
"                                    ",
"                                    ",
"                                    ",
"                                    ",
"                                    ",
"                                    "};
