/* XPM */
static char *_2_left_side[] = {
/* columns rows colors chars-per-pixel */
"32 32 3 1 ",
"  c None",
". c coral",
"X c cyan",
/* pixels */
"....                            ",
".XX.                            ",
".XX.                            ",
".XX.                            ",
".XX.                            ",
".XX.                            ",
".XX............                 ",
".XXXXXXXXXXXXX.                 ",
".XXXXXXXXXXXXX.                 ",
".XX............                 ",
".XX.                            ",
".XX.                            ",
".XX.                            ",
".XX.                            ",
".XX.                            ",
"....                            ",
"                                ",
"                                ",
"                                ",
"                                ",
"                                ",
"                                ",
"                                ",
"                                ",
"                                ",
"                                ",
"                                ",
"                                ",
"                                ",
"                                ",
"                                ",
"                                "
};
