/* XPM */
static char * 32_bottom_left_corner_xpm[] = {
"32 32 3 1",
" 	c None",
".	c coral",
"+	c cyan",
"....                            ",
".++.                            ",
".++.                            ",
".++.                            ",
".++.                            ",
".++.                            ",
".++.                            ",
".++.                            ",
".++.                            ",
".++.                            ",
".++.                            ",
".++.                            ",
".++.............                ",
".++++++++++++++.                ",
".++++++++++++++.                ",
"................                ",
"                                ",
"                                ",
"                                ",
"                                ",
"                                ",
"                                ",
"                                ",
"                                ",
"                                ",
"                                ",
"                                ",
"                                ",
"                                ",
"                                ",
"                                ",
"                                "};
