/* XPM */
static char * 36_bottom_right_corner_xpm[] = {
"36 36 3 1",
" 	c None",
".	c coral",
"+	c cyan",
"                .....               ",
"                .+++.               ",
"                .+++.               ",
"                .+++.               ",
"                .+++.               ",
"                .+++.               ",
"                .+++.               ",
"                .+++.               ",
"                .+++.               ",
"                .+++.               ",
"                .+++.               ",
"                .+++.               ",
"                .+++.               ",
"                .+++.               ",
"                .+++.               ",
"                .+++.               ",
".................+++.               ",
".+++++++++++++++++++.               ",
".+++++++++++++++++++.               ",
".+++++++++++++++++++.               ",
".....................               ",
"                                    ",
"                                    ",
"                                    ",
"                                    ",
"                                    ",
"                                    ",
"                                    ",
"                                    ",
"                                    ",
"                                    ",
"                                    ",
"                                    ",
"                                    ",
"                                    ",
"                                    "};
