/* XPM */
static char * 32_openhand_xpm[] = {
"32 32 3 1",
" 	c None",
".	c coral",
"+	c cyan",
"       ..                       ",
"   .. .++...                    ",
"  .++..++.++.                   ",
"  .++..++.++. .                 ",
"  .+++.++.++..+.                ",
"   .++.++.++.++.                ",
" ...++.++.++.++.                ",
".++..+++++++++.                 ",
".+++.+++++++++.                 ",
" .+++++.+.+.++.                 ",
"  .++++.+.+.++.                 ",
"  .++++.+.+.++.                 ",
"   .+++.+.+.+.                  ",
"    .+++++++.                   ",
"     .+++..+.                   ",
"     .... ...                   ",
"                                ",
"                                ",
"                                ",
"                                ",
"                                ",
"                                ",
"                                ",
"                                ",
"                                ",
"                                ",
"                                ",
"                                ",
"                                ",
"                                ",
"                                ",
"                                "};
