/* XPM */
static char * 36_openhand_xpm[] = {
"36 36 3 1",
" 	c None",
".	c coral",
"+	c cyan",
"         ...                        ",
"        .+++.                       ",
"    ... .+++....                    ",
"   .+++..+++.+++.                   ",
"   .+++..+++.+++.  ..               ",
"   .+++..+++.+++. .++.              ",
"   .++++.+++.+++..+++.              ",
"    .+++.+++.+++..+++.              ",
"    .+++.+++.++++.+++.              ",
" ....+++.+++.++++.++.               ",
".+++.+++++++++++++++.               ",
".+++..++++++++++++++.               ",
".++++..+++++++++++++.               ",
" .++++.+++.++.++.+++.               ",
"  .+++++++.++.++.+++.               ",
"   .++++++.++.++.+++.               ",
"   .++++++.++.++.+++.               ",
"   .++++++.++.++.+++.               ",
"    .+++++.++.++.++.                ",
"     .++++++++++++.                 ",
"      .++++++++++.                  ",
"       .+++++++++.                  ",
"       .++++...++.                  ",
"       .....  ....                  ",
"                                    ",
"                                    ",
"                                    ",
"                                    ",
"                                    ",
"                                    ",
"                                    ",
"                                    ",
"                                    ",
"                                    ",
"                                    ",
"                                    "};
