/* XPM */
static char *dummy[]={
"36 36 6 1",
". c None",
"a c black",
"d c green",
"b c red",
"c c yellow",
"# c white",
"..................###...............",
".................#aaa#..............",
"................#abbaa#.............",
"...............#abbbbaa#............",
"..............#aabbbbba#............",
".............#aaaabbbba#............",
"............#aaccaabba#.............",
"...........#aaccccaaa#..............",
"..........#aacccccaa#...............",
".........#aacccccaa#................",
"........#aacccccaa#.................",
".......#aacccccaa#..................",
"......#aacccccaa#...................",
".....#aacccccaa#....................",
"....#aacccccaa#.....................",
"...#aacccccaa#......................",
"..#aacccccaa#.......................",
".#aaaacccaa#........................",
".#adaaacaa#.........................",
"#aaddaaaa#..........................",
"#aadddaa#...........................",
"#adaaaa#............................",
"#aaaa##.............................",
"#####...............................",
"....................................",
"....................................",
"....................................",
"....................................",
"....................................",
"....................................",
"....................................",
"....................................",
"....................................",
"....................................",
"....................................",
"...................................."};
