/* XPM */
static char *dummy[]={
"36 36 3 1",
". c None",
"a c coral",
"# c cyan",
".###.....###........................",
"#aaa#...#aaa#.......................",
".###a#.#a###........................",
"....#a#a#...........................",
".....#a#............................",
".....#a#............................",
".....#a#............................",
".....#a#............................",
".....#a#............................",
"....##a##...........................",
"...#aaaaa#..........................",
"....##a##...........................",
".....#a#............................",
".....#a#............................",
".....#a#............................",
".....#a#............................",
".....#a#............................",
"....#a#a#...........................",
".###a#.#a###........................",
"#aaa#...#aaa#.......................",
".###.....###........................",
"....................................",
"....................................",
"....................................",
"....................................",
"....................................",
"....................................",
"....................................",
"....................................",
"....................................",
"....................................",
"....................................",
"....................................",
"....................................",
"....................................",
"...................................."};
