/* XPM */
static char *_2_top_side[] = {
/* columns rows colors chars-per-pixel */
"32 32 3 1 ",
"  c None",
". c coral",
"X c cyan",
/* pixels */
"................                ",
".XXXXXXXXXXXXXX.                ",
".XXXXXXXXXXXXXX.                ",
".......XX.......                ",
"      .XX.                      ",
"      .XX.                      ",
"      .XX.                      ",
"      .XX.                      ",
"      .XX.                      ",
"      .XX.                      ",
"      .XX.                      ",
"      .XX.                      ",
"      .XX.                      ",
"      .XX.                      ",
"      ....                      ",
"                                ",
"                                ",
"                                ",
"                                ",
"                                ",
"                                ",
"                                ",
"                                ",
"                                ",
"                                ",
"                                ",
"                                ",
"                                ",
"                                ",
"                                ",
"                                ",
"                                "
};
