/* XPM */
static char * 36_top_right_corner_xpm[] = {
"36 36 3 1",
" 	c None",
".	c coral",
"+	c cyan",
".....................               ",
".+++++++++++++++++++.               ",
".+++++++++++++++++++.               ",
".+++++++++++++++++++.               ",
".................+++.               ",
"                .+++.               ",
"                .+++.               ",
"                .+++.               ",
"                .+++.               ",
"                .+++.               ",
"                .+++.               ",
"                .+++.               ",
"                .+++.               ",
"                .+++.               ",
"                .+++.               ",
"                .+++.               ",
"                .+++.               ",
"                .+++.               ",
"                .+++.               ",
"                .+++.               ",
"                .....               ",
"                                    ",
"                                    ",
"                                    ",
"                                    ",
"                                    ",
"                                    ",
"                                    ",
"                                    ",
"                                    ",
"                                    ",
"                                    ",
"                                    ",
"                                    ",
"                                    ",
"                                    "};
